<svg xmlns="http://www.w3.org/2000/svg" height="800" width="1200" id="svg1717" version="1.1" viewBox="-97.1178 -31 841.6876 186"><defs id="defs1695"><style id="style1693">.h7PI{fill:#fff}.y3iP{fill:#ff690f}</style></defs><path class="y3iP" d="M0 0h124v124H0z" id="path1697" fill="#ff690f" stroke-width="5.18"/><path class="h7PI" d="M38.226 31.026h15.072v62H38.226z" id="path1699" fill="#fff" stroke-width="5.18"/><path class="h7PI" d="M85.774 92.974H69.148L52.003 62l17.145-30.974h16.626L68.526 62z" id="path1701" fill="#fff" stroke-width="5.18"/><path class="y3iP" d="M130.889 0h124v124h-124z" id="path1704" fill="#ff690f" stroke-width="5.18"/><path class="h7PI" d="M181.65 84.065l-2.694 9.013h-16.057l20.408-62.156h19.164l20.252 62.156h-16.419l-2.693-8.91zm10.98-35.325l-7.252 23.153h14.503z" id="path1706" fill="#fff" stroke-width="5.18"/><path id="path1709" d="M261.726 0h124v124h-124z" class="y3iP" fill="#ff690f" stroke-width="5.18"/><path id="path1711" d="M331.495 93.078H316.32v-27.4l-20.356-34.756h17.922l10.048 19.061 9.893-19.06h17.663l-19.994 34.755z" class="h7PI" fill="#fff" stroke-width="5.18"/><path id="path2266" d="M392.615 0h124v124h-124z" class="y3iP" fill="#ff690f" stroke-width="5.18"/><path id="path2268" d="M443.375 84.065l-2.693 9.013h-16.057l20.408-62.156h19.164l20.253 62.156h-16.42l-2.693-8.91zm10.98-35.325l-7.25 23.153h14.502z" class="h7PI" fill="#fff" stroke-width="5.18"/><path id="path2274" d="M523.452 0h124v124h-124z" class="y3iP" fill="#ff690f" stroke-width="5.18"/><path id="path2276" d="M561.678 31.026h15.072v62h-15.072z" class="h7PI" fill="#fff" stroke-width="5.18"/><path id="path2278" d="M609.226 92.974H592.6L575.455 62 592.6 31.026h16.626L591.978 62z" class="h7PI" fill="#fff" stroke-width="5.18"/></svg>