<svg xmlns="http://www.w3.org/2000/svg" height="800" width="1200" version="0.0" viewBox="-46.5 -18.25 403 109.5"><path d="M0 0h310v73H0z" fill="#0a78b0" fill-rule="evenodd"/><path d="M31.5 23.6935c-2.8577 0-5.488 1.255-7.5938 3.329v-2.11H15V65h8.8594v-.2813h.0468V52.622c2.1058 2.0739 4.7361 3.329 7.5938 3.329 6.9171 0 12.5156-7.215 12.5156-16.1288 0-8.9138-5.5985-16.1288-12.5156-16.1288zm-2.2031 7.1267c1.284 0 2.4358.626 3.4218 1.5941.2733.2645.5575.5682.797.8908.034.047.0602.0926.0937.1407.013.0183.034.0285.0469.0469.2637.3856.4918.7693.703 1.219.0156.0321.0317.0613.047.0938.0396.0867.056.1925.0937.2813.1657.3917.3464.7905.4688 1.219.1437.503.2506 1.0496.3281 1.5942.002.0157-.002.031 0 .0469.0778.5613.1406 1.1405.1406 1.7347v.047c-.002.5934-.0609 1.1744-.1406 1.7347-.002.015.002.0318 0 .0469-.0817.5585-.1769 1.08-.3281 1.5941-.004.0146.004.0323 0 .047-.9314 3.1786-3.1257 5.4387-5.6719 5.4387-.4408 0-.8523-.1055-1.2656-.2344-.3964-.1237-.7618-.2864-1.125-.5158-.01-.0058-.037.0058-.0469 0-.3578-.23-.7134-.523-1.0312-.844-.3204-.3234-.6185-.6748-.8907-1.0783-.2136-.3168-.4296-.672-.6093-1.0315-.022-.0438-.0255-.0962-.0469-.1406a9.926 9.926 0 01-.2343-.5158c-.0466-.1125-.0975-.2126-.1407-.3282v-.0469c-.4731-1.2523-.75-2.6474-.75-4.1728 0-4.8814 2.7457-8.8615 6.1407-8.8615z" fill="#fff" fill-rule="evenodd"/><path d="M46.547 24.8188v30.0538h8.9532v-.3282h.0468V36.0245c1.1966-1.8 4.2242-3.2421 8.1563-3.6102.1717-.0161.345.01.5156 0v-7.5955h-1.5c-.409.0598-.8307.1394-1.2656.2344-.5318.1162-1.05.2616-1.5469.422-.0319.0103-.062.0364-.0938.0469l-2.2031 1.1252-.6094.3282-1.4531.7502v-2.907h-9zm20.568.3112h8.955v29.7426h-8.955zm26.8222-1.1557c-8.462 0-15.2812 7.1002-15.2812 15.8944 0 8.7941 6.8192 15.9412 15.2812 15.9412 3.8666 0 7.3808-1.5256 10.0782-3.9853l-4.2656-6.189c-1.2708 2.0625-3.1773 3.4227-5.3438 3.4227-3.841 0-6.9844-4.1341-6.9844-9.2365 0-5.1024 3.1435-9.2365 6.9844-9.2365 2.2365 0 4.217 1.4317 5.4844 3.6102l3.7969-6.611c-2.65-2.2653-6.048-3.6102-9.75-3.6102zm87.6099.563c-2.9302 0-5.6072 1.0048-7.5 2.5788v-1.9692h-8.9531v29.7256h8.9531V34.946c.8844-1.8328 2.5653-3.0945 4.5-3.0945 1.9017 0 3.5437 1.2194 4.4532 3.0007v20.3485h8.953v-20.536c.009-.4454.0115-.905 0-1.3597.007-.1112 0-.2144 0-.3282a6.642 6.642 0 00-.0468-.797c-.004-.0307.004-.0632 0-.0938-.5576-4.2227-4.984-7.5487-10.3593-7.5487z" fill="#fff"/><path d="M118.8209 23.4583c-5.9524 0-11.076 3.579-13.5938 8.7992-.04.1115-.1021.2142-.1406.326-.9015 2.617-1.3097 5.3525-1.3125 8.0542.0114.2791.0255.557.0468.838.1344 1.7734.4577 3.4906.9375 5.1678.0748.189.1515.3695.2344.5587.999 2.2772 2.4775 4.2793 4.3594 5.9126.0444.0318.0958.0619.1406.0931 2.5272 1.762 5.7152 2.84 9.1875 2.84 6.8046 0 12.5818-4.0431 14.3906-9.544l-6.0937-2.5607c-1.3444 3.0795-3.9711 5.1678-7.0312 5.1678-3.3793 0-6.1991-2.5816-7.3594-6.192-.0405-.1262-.1043-.244-.1406-.3725v-.1862c-.079-.307-.1803-.612-.2344-.9312-.002-.015.002-.0314 0-.0465h21.703c.0352-2.0347-.089-4.1348-.4687-6.2385-.0347-.1248-.0633-.2498-.0936-.3725-1.9246-6.5472-7.6633-11.3132-14.5314-11.3132zm-.4688 6.518c.218-.026.4793 0 .7031 0 3.1687 0 5.7242 2.6392 6.2813 6.1454h-12.6563c.5293-3.2673 2.8025-5.8048 5.672-6.1454zM136.884 13h8.955v41.8726h-8.955zm14.255 12.13h8.955v29.7426h-8.955zm58.0438-1.6722c-5.9523 0-11.0759 3.579-13.5937 8.799-.0402.1115-.1022.2142-.1406.326-.9015 2.617-1.3097 5.3525-1.3125 8.0541.012.2791.0255.557.0468.838.1344 1.7734.4577 3.4906.9375 5.1677.0748.189.1515.3696.2344.5587.999 2.2772 2.4775 4.2793 4.3594 5.9126.0444.0317.0958.0618.1405.093 2.5272 1.762 5.7152 2.84 9.1875 2.84 6.8046 0 12.5818-4.043 14.3907-9.544l-6.0938-2.5605c-1.3444 3.0794-3.9711 5.1677-7.0312 5.1677-3.3793 0-6.1991-2.5816-7.3594-6.192-.0405-.126-.1043-.2438-.1406-.3724v-.1862c-.0789-.307-.1802-.612-.2343-.9311-.003-.015.003-.0315 0-.0465h21.703c.0352-2.0347-.089-4.1348-.4687-6.2385-.0347-.1248-.0634-.2498-.0936-.3725-1.9245-6.547-7.6632-11.313-14.5313-11.313zm-.4687 6.5178c.218-.0258.4793 0 .703 0 3.1687 0 5.7242 2.6392 6.2813 6.1454h-12.6562c.5293-3.2673 2.8024-5.8047 5.6719-6.1454zm23.5964 22.3074c0 1.8882-1.5302 3.4188-3.4178 3.4188-1.8875 0-3.4177-1.5306-3.4177-3.4188 0-1.8881 1.5302-3.4188 3.4177-3.4188 1.8876 0 3.4178 1.5307 3.4178 3.4188zm10.4892-13.9352c-4.8756 0-8.8047 3.905-8.8047 8.7416 0 4.8367 3.929 8.7675 8.8047 8.7675 2.2279 0 4.2526-.839 5.8068-2.1919l-2.4577-3.4038c-.7322 1.1343-1.8307 1.8824-3.079 1.8824-2.213 0-4.0242-2.2737-4.0242-5.08 0-2.8062 1.8111-5.0799 4.0242-5.0799 1.2887 0 2.4297.7875 3.16 1.9856l2.1877-3.636c-1.5269-1.2458-3.4847-1.9855-5.6178-1.9855zm15.247-.3451c-5.0039 0-9.0937 3.9639-9.0937 8.9044s4.0898 8.9498 9.0937 8.9498c5.004 0 9.047-4.0093 9.047-8.9498s-4.043-8.9044-9.047-8.9044zm-.0936 3.9979c2.1832 0 3.9843 2.2053 3.9843 4.9065 0 2.7011-1.8011 4.9065-3.9843 4.9065-2.1833 0-3.9376-2.2054-3.9376-4.9065 0-2.7012 1.7543-4.9065 3.9376-4.9065zm20.3903-3.6783c-1.6134 0-3.0761.5482-4.125 1.4066v-.5158h-5.1094v15.8006h5.1094V43.5735c.3544-.9618 1.1125-1.641 2.0156-1.641.9084 0 1.6762.6704 2.0156 1.641.005.0141-.005.0326 0 .0469v11.3933h5.1094v-11.534c.3697-.9081 1.0972-1.5472 1.9688-1.5472.8909 0 1.6665.6535 2.0156 1.5941v11.4402h5.1094V40.7603c-.9598-1.4465-2.8213-2.438-5.0157-2.438-1.8733 0-3.539.7174-4.5937 1.8285-1.0349-1.1032-2.6348-1.8285-4.5-1.8285zM75.916 18.0726c0 2.4734-2.0046 4.4785-4.4775 4.4785-2.4728 0-4.4775-2.005-4.4775-4.4785 0-2.4734 2.0047-4.4785 4.4775-4.4785 2.4729 0 4.4775 2.005 4.4775 4.4785zm84.024 0c0 2.4734-2.0046 4.4785-4.4775 4.4785s-4.4775-2.005-4.4775-4.4785c0-2.4734 2.0046-4.4785 4.4775-4.4785s4.4775 2.005 4.4775 4.4785zm138.0694.5194c1.1632 0 2.2294.2858 3.1987.8575.9693.5717 1.7354 1.3476 2.2982 2.3276.5629.98.8443 2.048.8443 3.204 0 1.1435-.2814 2.2083-.8443 3.1946-.5628.9864-1.332 1.7717-2.3076 2.356-.9755.5842-2.0511.8763-3.2268.8763-1.1632 0-2.2295-.289-3.1988-.867-.9693-.578-1.7322-1.357-2.2888-2.337-.5566-.98-.8349-2.0418-.8349-3.1852 0-1.1434.2814-2.2082.8443-3.1946.5628-.9863 1.3289-1.7716 2.2982-2.3559.9693-.5842 2.0418-.8764 3.2175-.8764zm-.0376 11.2517c.9006 0 1.7198-.2199 2.4577-.6596.738-.4398 1.3227-1.0303 1.7542-1.7717.4315-.7413.6472-1.5517.6472-2.4313 0-.8795-.2126-1.6868-.6378-2.4218-.4253-.735-1.0069-1.3193-1.7448-1.7528-.738-.4335-1.551-.6502-2.439-.6502-.9005 0-1.7166.2199-2.4482.6596-.7317.4398-1.3102 1.0303-1.7354 1.7717-.4253.7413-.6379 1.5517-.6379 2.4312 0 .8796.2095 1.6869.6285 2.422.419.735.9943 1.3192 1.726 1.7527s1.5415.6502 2.4295.6502zm2.7016-5.9557c0 .4523-.0907.845-.272 1.178-.1814.333-.4472.581-.7974.7444l1.257 1.9601h-1.7447l-.8818-1.6585h-1.1257v1.6585h-1.5196V21.796h2.589c.8005 0 1.4165.1822 1.848.5465.4315.3644.6472.8796.6472 1.5455zm-3.5646 1.0178h1.0694c.3252 0 .5785-.0848.7598-.2545.1814-.1696.272-.4052.272-.7067 0-.3142-.0907-.5498-.272-.7068-.1813-.157-.4346-.2356-.7598-.2356h-1.0694z" fill="#fff"/></svg>